<?xml version="1.0" encoding="UTF-8" standalone="no"?>
<!DOCTYPE svg PUBLIC "-//W3C//DTD SVG 1.1//EN"
 "http://www.w3.org/Graphics/SVG/1.1/DTD/svg11.dtd">
<!-- Generated by graphviz version 2.43.0 (0)
 -->
<!-- Title: G Pages: 1 -->
<svg width="347pt" height="98pt"
 viewBox="0.00 0.00 347.00 98.00" xmlns="http://www.w3.org/2000/svg" xmlns:xlink="http://www.w3.org/1999/xlink">
<g id="graph0" class="graph" transform="scale(1 1) rotate(0) translate(4 94)">
<title>G</title>
<polygon fill="white" stroke="transparent" points="-4,4 -4,-94 343,-94 343,4 -4,4"/>
<!-- local_file.file1 -->
<g id="node1" class="node">
<title>local_file.file1</title>
<polygon fill="none" stroke="black" points="333.5,-36 223.5,-36 223.5,0 333.5,0 333.5,-36"/>
<text text-anchor="middle" x="278.5" y="-14.3" font-family="sans-serif" font-size="14.00">local_file.file1</text>
</g>
<!-- time_static.time_update -->
<g id="node4" class="node">
<title>time_static.time_update</title>
<polygon fill="none" stroke="black" points="182,-36 0,-36 0,0 182,0 182,-36"/>
<text text-anchor="middle" x="91" y="-14.3" font-family="sans-serif" font-size="14.00">time_static.time_update</text>
</g>
<!-- local_file.file1&#45;&gt;time_static.time_update -->
<g id="edge1" class="edge">
<title>local_file.file1&#45;&gt;time_static.time_update</title>
<path fill="none" stroke="black" d="M223.35,-18C213.54,-18 203.03,-18 192.39,-18"/>
<polygon fill="black" stroke="black" points="192.17,-14.5 182.17,-18 192.17,-21.5 192.17,-14.5"/>
</g>
<!-- local_file.krill -->
<g id="node2" class="node">
<title>local_file.krill</title>
<polygon fill="none" stroke="black" points="144,-90 38,-90 38,-54 144,-54 144,-90"/>
<text text-anchor="middle" x="91" y="-68.3" font-family="sans-serif" font-size="14.00">local_file.krill</text>
</g>
<!-- local_file.whale -->
<g id="node3" class="node">
<title>local_file.whale</title>
<polygon fill="none" stroke="black" points="339,-90 218,-90 218,-54 339,-54 339,-90"/>
<text text-anchor="middle" x="278.5" y="-68.3" font-family="sans-serif" font-size="14.00">local_file.whale</text>
</g>
<!-- local_file.whale&#45;&gt;local_file.krill -->
<g id="edge2" class="edge">
<title>local_file.whale&#45;&gt;local_file.krill</title>
<path fill="none" stroke="black" d="M217.79,-72C197.49,-72 174.77,-72 154.28,-72"/>
<polygon fill="black" stroke="black" points="154.1,-68.5 144.1,-72 154.1,-75.5 154.1,-68.5"/>
</g>
</g>
</svg>
